<svg width="19" height="19" viewBox="0 0 19 19" fill="none" xmlns="http://www.w3.org/2000/svg">
<path d="M14.25 12.4675H13.0625C12.905 12.4675 12.754 12.53 12.6427 12.6414C12.5313 12.7527 12.4688 12.9037 12.4688 13.0612C12.4688 13.2187 12.5313 13.3697 12.6427 13.4811C12.754 13.5924 12.905 13.655 13.0625 13.655H14.25C14.4075 13.655 14.5585 13.5924 14.6698 13.4811C14.7812 13.3697 14.8438 13.2187 14.8438 13.0612C14.8438 12.9037 14.7812 12.7527 14.6698 12.6414C14.5585 12.53 14.4075 12.4675 14.25 12.4675Z" fill="#3D54A0"/>
<path d="M14.25 9.49872H13.0625C12.905 9.49872 12.754 9.56127 12.6427 9.67262C12.5313 9.78397 12.4688 9.935 12.4688 10.0925C12.4688 10.2499 12.5313 10.401 12.6427 10.5123C12.754 10.6237 12.905 10.6862 13.0625 10.6862H14.25C14.4075 10.6862 14.5585 10.6237 14.6698 10.5123C14.7812 10.401 14.8438 10.2499 14.8438 10.0925C14.8438 9.935 14.7812 9.78397 14.6698 9.67262C14.5585 9.56127 14.4075 9.49872 14.25 9.49872Z" fill="#3D54A0"/>
<path d="M16.0312 6.52997H11.2812V2.96747C11.2809 2.65263 11.1557 2.3508 10.933 2.12818C10.7104 1.90556 10.4086 1.78033 10.0938 1.77997H2.96875C2.65392 1.78033 2.35208 1.90556 2.12946 2.12818C1.90684 2.3508 1.78161 2.65263 1.78125 2.96747V16.6237C1.78125 16.7812 1.84381 16.9322 1.95516 17.0436C2.06651 17.1549 2.21753 17.2175 2.375 17.2175H10.6875C10.845 17.2175 10.996 17.1549 11.1073 17.0436C11.2187 16.9322 11.2812 16.7812 11.2812 16.6237V7.71747H16.0312V16.6237C16.0312 16.7812 16.0938 16.9322 16.2052 17.0436C16.3165 17.1549 16.4675 17.2175 16.625 17.2175C16.7825 17.2175 16.9335 17.1549 17.0448 17.0436C17.1562 16.9322 17.2188 16.7812 17.2188 16.6237V7.71747C17.2184 7.40263 17.0932 7.1008 16.8705 6.87818C16.6479 6.65556 16.3461 6.53033 16.0312 6.52997ZM4.75 4.74872H7.125C7.28247 4.74872 7.4335 4.81127 7.54484 4.92262C7.65619 5.03397 7.71875 5.185 7.71875 5.34247C7.71875 5.49994 7.65619 5.65096 7.54484 5.76231C7.4335 5.87366 7.28247 5.93622 7.125 5.93622H4.75C4.59253 5.93622 4.4415 5.87366 4.33016 5.76231C4.21881 5.65096 4.15625 5.49994 4.15625 5.34247C4.15625 5.185 4.21881 5.03397 4.33016 4.92262C4.4415 4.81127 4.59253 4.74872 4.75 4.74872ZM7.125 14.8425H4.75C4.59253 14.8425 4.4415 14.7799 4.33016 14.6686C4.21881 14.5572 4.15625 14.4062 4.15625 14.2487C4.15625 14.0912 4.21881 13.9402 4.33016 13.8289C4.4415 13.7175 4.59253 13.655 4.75 13.655H7.125C7.28247 13.655 7.4335 13.7175 7.54484 13.8289C7.65619 13.9402 7.71875 14.0912 7.71875 14.2487C7.71875 14.4062 7.65619 14.5572 7.54484 14.6686C7.4335 14.7799 7.28247 14.8425 7.125 14.8425ZM8.3125 11.8737H5.9375C5.78003 11.8737 5.62901 11.8112 5.51766 11.6998C5.40631 11.5885 5.34375 11.4374 5.34375 11.28C5.34375 11.1225 5.40631 10.9715 5.51766 10.8601C5.62901 10.7488 5.78003 10.6862 5.9375 10.6862H8.3125C8.46997 10.6862 8.621 10.7488 8.73234 10.8601C8.84369 10.9715 8.90625 11.1225 8.90625 11.28C8.90625 11.4374 8.84369 11.5885 8.73234 11.6998C8.621 11.8112 8.46997 11.8737 8.3125 11.8737Z" fill="#3D54A0"/>
</svg>
