<svg width="293" height="95" viewBox="0 0 293 95" fill="none" xmlns="http://www.w3.org/2000/svg">
<g clip-path="url(#clip0_16840_758)">
<path d="M97.0086 47.4377C97.0086 56.8199 94.1768 65.9915 88.8714 73.7926C83.566 81.5937 76.0252 87.6739 67.2026 91.2644C58.38 94.8548 48.6719 95.7942 39.3059 93.9638C29.9399 92.1334 21.3367 87.6154 14.5842 80.9812C7.83168 74.3469 3.23316 65.8943 1.37015 56.6923C-0.492863 47.4903 0.463303 37.9522 4.11773 29.2841C7.77217 20.616 13.9607 13.2072 21.9008 7.99469C29.841 2.78217 39.176 2.79034e-06 48.7255 2.79034e-06C55.0667 -0.00213438 61.3462 1.22342 67.2052 3.60663C73.0641 5.98983 78.3877 9.48399 82.8716 13.8894C87.3556 18.2948 90.912 23.5252 93.3377 29.2815C95.7633 35.0379 97.0107 41.2075 97.0086 47.4377Z" fill="#3F52A4"/>
<path d="M48.7264 95C35.8935 94.9799 23.5921 89.9625 14.5179 81.0471C5.44372 72.1318 0.336836 60.0458 0.316406 47.4377C0.316406 21.225 22.0521 0 48.7264 0C61.5597 0.0200683 73.8617 5.03736 82.9368 13.9525C92.0119 22.8677 97.12 34.9537 97.1419 47.5623C97.0095 73.6503 75.4062 95 48.7264 95ZM48.7264 0.124693C39.2031 0.124693 29.8937 2.89923 21.9753 8.09745C14.057 13.2957 7.88541 20.6841 4.241 29.3284C0.596598 37.9727 -0.356947 47.4847 1.50096 56.6615C3.35886 65.8382 7.94476 74.2676 14.6787 80.8837C21.4127 87.4998 29.9924 92.0054 39.3327 93.8308C48.673 95.6561 58.3545 94.7193 67.1528 91.1387C75.9512 87.5581 83.4713 81.4946 88.7622 73.7149C94.053 65.9352 96.877 56.7888 96.877 47.4322C96.8595 34.8913 91.7807 22.869 82.7543 14.0017C73.728 5.13439 61.4908 0.145892 48.7264 0.130115V0.124693Z" fill="#3F52A4"/>
<path d="M292.999 11.8896H80.3496V12.5294H292.999V11.8896Z" fill="#3F52A4"/>
<path d="M292.999 14.958H80.3496V15.5977H292.999V14.958Z" fill="#3F52A4"/>
<path d="M292.999 21.4795H80.3496V22.1192H292.999V21.4795Z" fill="#3F52A4"/>
<path d="M292.999 18.2871H80.3496V18.9268H292.999V18.2871Z" fill="#3F52A4"/>
<path d="M292.999 24.5488H80.3496V25.1886H292.999V24.5488Z" fill="#3F52A4"/>
<path d="M292.999 27.6172H80.3496V28.2569H292.999V27.6172Z" fill="#3F52A4"/>
<path d="M16.1924 12.2746L32.592 45.649L40.2677 32.0954L55.6244 31.9653L63.4325 45.649L80.224 11.7812C80.224 11.7812 89.0529 17.9183 92.9762 28.7883L72.151 70.5822H57.3185L48.2082 51.1464L39.4896 70.5822H23.868L4.35059 28.7721C7.02751 22.491 11.069 16.8606 16.1924 12.2746Z" fill="#FCFDFD"/>
<mask id="mask0_16840_758" style="mask-type:luminance" maskUnits="userSpaceOnUse" x="4" y="11" width="89" height="60">
<path d="M16.1924 12.2746L32.592 45.649L40.2677 32.0954L55.6244 31.9653L63.4325 45.649L80.224 11.7812C80.224 11.7812 89.0529 17.9183 92.9762 28.7883L72.151 70.5822H57.3185L48.2082 51.1464L39.4896 70.5822H23.868L4.35059 28.7721C7.06103 22.5093 11.0978 16.8855 16.1924 12.2746Z" fill="white"/>
</mask>
<g mask="url(#mask0_16840_758)">
<path d="M98.704 11.8896H-9.05273V12.5294H98.704V11.8896Z" fill="#3F52A4"/>
<path d="M98.704 14.958H-9.05273V15.5977H98.704V14.958Z" fill="#3F52A4"/>
<path d="M98.704 21.4805H-9.05273V22.1202H98.704V21.4805Z" fill="#3F52A4"/>
<path d="M98.704 18.2871H-9.05273V18.9268H98.704V18.2871Z" fill="#3F52A4"/>
<path d="M98.704 24.5479H-9.05273V25.1876H98.704V24.5479Z" fill="#3F52A4"/>
<path d="M98.704 27.6172H-9.05273V28.2569H98.704V27.6172Z" fill="#3F52A4"/>
<path d="M98.704 34.2695H-9.05273V34.9093H98.704V34.2695Z" fill="#3F52A4"/>
<path d="M98.704 31.0703H-9.05273V31.71H98.704V31.0703Z" fill="#3F52A4"/>
<path d="M98.704 37.7178H-9.05273V38.3575H98.704V37.7178Z" fill="#3F52A4"/>
<path d="M98.704 40.7861H-9.05273V41.4259H98.704V40.7861Z" fill="#3F52A4"/>
<path d="M98.704 47.4385H-9.05273V48.0782H98.704V47.4385Z" fill="#3F52A4"/>
<path d="M98.704 44.2393H-9.05273V44.879H98.704V44.2393Z" fill="#3F52A4"/>
<path d="M98.704 50.5059H-9.05273V51.1456H98.704V50.5059Z" fill="#3F52A4"/>
<path d="M98.704 53.5752H-9.05273V54.2149H98.704V53.5752Z" fill="#3F52A4"/>
<path d="M98.704 60.2217H-9.05273V60.8614H98.704V60.2217Z" fill="#3F52A4"/>
<path d="M98.704 57.0283H-9.05273V57.6681H98.704V57.0283Z" fill="#3F52A4"/>
<path d="M98.704 63.4209H-9.05273V64.0606H98.704V63.4209Z" fill="#3F52A4"/>
<path d="M98.704 66.4893H-9.05273V67.129H98.704V66.4893Z" fill="#3F52A4"/>
<path d="M98.704 69.9434H-9.05273V70.5831H98.704V69.9434Z" fill="#3F52A4"/>
</g>
<path d="M127.712 62.8181C127.677 62.9695 127.614 63.113 127.524 63.241C127.435 63.3565 127.312 63.4418 127.171 63.485C126.975 63.5472 126.77 63.5837 126.564 63.5934C126.318 63.6151 126.003 63.6259 125.621 63.6259C125.19 63.6259 124.848 63.6259 124.589 63.5934C124.38 63.5846 124.174 63.5481 123.976 63.485C123.843 63.4416 123.728 63.3557 123.651 63.241C123.576 63.1094 123.523 62.9665 123.496 62.8181L121.167 53.7589L118.96 62.8181C118.933 62.9639 118.879 63.1036 118.8 63.2302C118.725 63.3459 118.612 63.4337 118.48 63.4795C118.289 63.5488 118.088 63.5872 117.884 63.5934C117.638 63.6151 117.307 63.6259 116.891 63.6259C116.455 63.6259 116.107 63.6259 115.854 63.5934C115.645 63.5859 115.439 63.5493 115.241 63.485C115.106 63.4444 114.991 63.3579 114.916 63.241C114.834 63.1106 114.777 62.9676 114.744 62.8181L111.434 50.3488C111.377 50.1449 111.34 49.9361 111.323 49.7253C111.314 49.6617 111.321 49.5969 111.343 49.5364C111.365 49.476 111.402 49.4217 111.45 49.3784C111.586 49.2831 111.747 49.2302 111.914 49.2266C112.123 49.2266 112.421 49.2266 112.808 49.2266C113.194 49.2266 113.437 49.2266 113.641 49.2266C113.8 49.2296 113.958 49.2551 114.11 49.3025C114.201 49.3342 114.278 49.3979 114.325 49.4814C114.368 49.5858 114.398 49.6951 114.413 49.8067L116.963 60.7526L119.617 49.9097C119.644 49.7923 119.683 49.6779 119.733 49.5681C119.789 49.4743 119.877 49.4031 119.981 49.3675C120.135 49.311 120.297 49.2763 120.461 49.2645C120.665 49.2645 120.93 49.2645 121.272 49.2645C121.614 49.2645 121.918 49.2645 122.128 49.2645C122.297 49.2718 122.465 49.3047 122.624 49.3621C122.729 49.3994 122.819 49.47 122.878 49.5627C122.937 49.6733 122.978 49.7922 122.999 49.9151L125.759 60.758L128.313 49.8446C128.331 49.7405 128.361 49.6387 128.402 49.541C128.446 49.4517 128.523 49.3821 128.617 49.3458C128.759 49.2888 128.91 49.2541 129.064 49.2428C129.257 49.2428 129.533 49.2428 129.886 49.2428C130.239 49.2428 130.471 49.2428 130.653 49.2428C130.801 49.2482 130.942 49.3016 131.056 49.3946C131.099 49.4431 131.131 49.5002 131.149 49.5621C131.167 49.6239 131.171 49.6889 131.161 49.7524C131.139 49.9701 131.101 50.1859 131.045 50.3976L127.712 62.8181Z" fill="#003596"/>
<path d="M136.348 63.1595C136.346 63.2331 136.319 63.3039 136.27 63.36C136.205 63.4261 136.123 63.4746 136.033 63.501C135.886 63.5445 135.734 63.5735 135.581 63.5877C135.343 63.6141 135.103 63.6268 134.863 63.6257C134.624 63.6265 134.384 63.6138 134.146 63.5877C133.993 63.5741 133.841 63.545 133.694 63.501C133.602 63.4755 133.518 63.4269 133.451 63.36C133.404 63.3034 133.378 63.2325 133.379 63.1595V49.6655C133.377 49.5923 133.403 49.5211 133.451 49.4649C133.517 49.3944 133.604 49.3453 133.699 49.3239C133.846 49.2783 133.998 49.2474 134.151 49.2318C134.627 49.1884 135.105 49.1884 135.581 49.2318C135.734 49.2474 135.886 49.2783 136.033 49.3239C136.125 49.345 136.209 49.3944 136.27 49.4649C136.32 49.5205 136.347 49.5917 136.348 49.6655V63.1595Z" fill="#003596"/>
<path d="M147.621 62.3412C147.633 62.5217 147.633 62.7028 147.621 62.8833C147.61 63.011 147.582 63.1367 147.539 63.2574C147.514 63.342 147.464 63.4175 147.395 63.4742C147.34 63.5172 147.272 63.5402 147.202 63.5393H140.509C140.281 63.5468 140.059 63.4715 139.885 63.3279C139.793 63.2358 139.722 63.1249 139.678 63.0031C139.635 62.8814 139.618 62.7516 139.631 62.6231V49.6658C139.63 49.5926 139.655 49.5214 139.703 49.4652C139.768 49.3959 139.852 49.3469 139.946 49.3243C140.093 49.2781 140.244 49.2472 140.398 49.2321C140.636 49.2082 140.876 49.1973 141.116 49.1996C141.355 49.1971 141.595 49.2079 141.833 49.2321C141.986 49.2478 142.138 49.2786 142.285 49.3243C142.378 49.3454 142.461 49.3947 142.523 49.4652C142.572 49.5209 142.599 49.592 142.6 49.6658V61.1593H147.174C147.243 61.1592 147.311 61.18 147.367 61.2189C147.433 61.2713 147.483 61.3408 147.511 61.4195C147.555 61.5364 147.583 61.6586 147.594 61.7828C147.616 61.9681 147.625 62.1546 147.621 62.3412Z" fill="#003596"/>
<path d="M157.471 62.3412C157.471 62.5222 157.462 62.7032 157.443 62.8833C157.432 63.011 157.404 63.1367 157.361 63.2574C157.333 63.341 157.284 63.416 157.217 63.4742C157.162 63.5172 157.094 63.5402 157.024 63.5393H150.358C150.131 63.5468 149.909 63.4715 149.735 63.3279C149.642 63.2358 149.572 63.1249 149.528 63.0031C149.484 62.8814 149.468 62.7516 149.481 62.6231V49.6658C149.479 49.5926 149.505 49.5214 149.552 49.4652C149.617 49.3949 149.702 49.3457 149.795 49.3243C149.942 49.2781 150.094 49.2472 150.248 49.2321C150.486 49.2082 150.726 49.1973 150.965 49.1996C151.205 49.1971 151.444 49.2079 151.682 49.2321C151.836 49.2478 151.988 49.2786 152.135 49.3243C152.227 49.3467 152.309 49.3958 152.372 49.4652C152.422 49.5209 152.449 49.592 152.449 49.6658V61.1593H157.024C157.093 61.1592 157.16 61.18 157.217 61.2189C157.282 61.2727 157.331 61.3417 157.361 61.4195C157.405 61.5364 157.432 61.6586 157.443 61.7828C157.462 61.9683 157.472 62.1547 157.471 62.3412Z" fill="#003596"/>
<path d="M171.243 62.4772C171.316 62.6819 171.372 62.8923 171.409 63.1061C171.424 63.1666 171.424 63.2299 171.409 63.2904C171.393 63.351 171.363 63.4068 171.32 63.4531C171.195 63.5453 171.041 63.5948 170.884 63.594C170.675 63.594 170.382 63.6266 170.018 63.6266C169.654 63.6266 169.339 63.6266 169.124 63.6266C168.959 63.6224 168.794 63.6006 168.633 63.5615C168.543 63.5423 168.462 63.4947 168.401 63.426C168.349 63.3558 168.309 63.2768 168.285 63.1929L167.309 60.3195H161.846L160.924 63.117C160.897 63.2091 160.856 63.2968 160.803 63.3772C160.746 63.4551 160.665 63.5123 160.571 63.5398C160.422 63.5905 160.266 63.6179 160.108 63.6211C159.909 63.6211 159.65 63.6211 159.33 63.6211C159.059 63.6232 158.788 63.6106 158.518 63.5832C158.369 63.5798 158.226 63.524 158.116 63.426C158.076 63.3761 158.048 63.3181 158.033 63.2562C158.019 63.1943 158.019 63.1301 158.033 63.0682C158.074 62.8582 158.131 62.6516 158.204 62.4501L162.69 49.7693C162.725 49.6608 162.777 49.5583 162.845 49.4657C162.92 49.3795 163.02 49.3173 163.132 49.2868C163.312 49.2408 163.497 49.2153 163.683 49.2109C163.915 49.2109 164.235 49.2109 164.605 49.2109C164.975 49.2109 165.4 49.2109 165.664 49.2109C165.871 49.2158 166.076 49.2412 166.277 49.2868C166.398 49.316 166.508 49.3802 166.591 49.4712C166.663 49.5717 166.718 49.6835 166.751 49.8019L171.243 62.4772ZM164.577 51.9976L162.519 58.0696H166.647L164.577 51.9976Z" fill="#003596"/>
<path d="M182.015 59.2722C182.029 59.955 181.883 60.6318 181.59 61.251C181.315 61.8008 180.919 62.284 180.431 62.666C179.922 63.0561 179.341 63.3468 178.721 63.5226C178.042 63.7173 177.337 63.8141 176.63 63.8099C176.161 63.8137 175.694 63.7738 175.233 63.6906C174.846 63.6211 174.464 63.5232 174.091 63.3979C173.805 63.3036 173.528 63.1838 173.263 63.0401C173.091 62.9462 172.93 62.8334 172.783 62.7039C172.677 62.5885 172.606 62.4456 172.579 62.2919C172.53 62.0346 172.51 61.7729 172.519 61.5112C172.519 61.2835 172.519 61.0938 172.519 60.9366C172.527 60.8094 172.551 60.6838 172.59 60.5625C172.613 60.4841 172.659 60.4142 172.723 60.3619C172.78 60.3189 172.85 60.296 172.921 60.2968C173.084 60.3206 173.237 60.384 173.368 60.4812C173.606 60.6276 173.851 60.7615 174.102 60.8823C174.448 61.0495 174.808 61.1856 175.178 61.289C175.647 61.4153 176.132 61.4756 176.618 61.4679C176.945 61.4715 177.27 61.4295 177.584 61.3432C177.847 61.2684 178.094 61.1471 178.313 60.9853C178.508 60.832 178.663 60.635 178.765 60.4107C178.874 60.1701 178.928 59.9094 178.925 59.6462C178.934 59.3459 178.838 59.0516 178.655 58.8113C178.457 58.569 178.22 58.3602 177.954 58.1933C177.638 58.0014 177.308 57.8328 176.966 57.6891C176.602 57.5265 176.221 57.3638 175.835 57.1849C175.444 57.007 175.064 56.806 174.698 56.5831C174.334 56.3608 174.003 56.0888 173.716 55.7753C173.415 55.4489 173.176 55.0726 173.01 54.6639C172.611 53.5769 172.655 52.3807 173.131 51.3243C173.377 50.8237 173.733 50.383 174.174 50.034C174.636 49.6822 175.162 49.4209 175.725 49.2642C176.341 49.0946 176.978 49.0107 177.617 49.0148C177.965 49.0131 178.311 49.0385 178.655 49.0907C178.982 49.1358 179.305 49.2065 179.62 49.3021C179.895 49.3787 180.163 49.4785 180.42 49.6003C180.586 49.6683 180.74 49.7596 180.878 49.8714C180.938 49.9276 180.99 49.9914 181.033 50.0611C181.062 50.1273 181.084 50.1964 181.099 50.2671C181.12 50.3726 181.133 50.4796 181.138 50.587C181.138 50.7171 181.138 50.8743 181.138 51.0641C181.138 51.2539 181.138 51.4599 181.138 51.6062C181.132 51.7288 181.113 51.8505 181.083 51.9695C181.065 52.048 181.027 52.1207 180.972 52.1809C180.917 52.2264 180.846 52.2496 180.774 52.246C180.633 52.2264 180.498 52.1743 180.382 52.0942C180.2 51.9912 179.979 51.8773 179.714 51.758C179.421 51.6219 179.116 51.5112 178.804 51.4273C178.436 51.322 178.055 51.2708 177.672 51.2755C177.386 51.2688 177.101 51.3092 176.828 51.3948C176.607 51.4579 176.402 51.567 176.227 51.7147C176.069 51.8463 175.945 52.0137 175.868 52.2026C175.787 52.395 175.745 52.6015 175.747 52.8098C175.739 53.1058 175.833 53.3957 176.011 53.6339C176.205 53.8815 176.445 54.0912 176.718 54.2519C177.041 54.4456 177.379 54.6159 177.728 54.7615C178.103 54.9187 178.484 55.0868 178.875 55.2657C179.268 55.4428 179.65 55.6438 180.018 55.8675C180.39 56.0859 180.728 56.3562 181.022 56.6699C181.679 57.3799 182.029 58.3131 181.999 59.2722H182.015Z" fill="#003596"/>
<path d="M196.948 63.052C196.916 63.1596 196.867 63.2619 196.804 63.3556C196.728 63.4423 196.626 63.5031 196.512 63.529C196.332 63.5769 196.147 63.6024 195.96 63.6049C195.728 63.6049 195.408 63.6049 195.05 63.6049H194.277C194.093 63.6058 193.909 63.5967 193.725 63.5778C193.602 63.5717 193.479 63.5498 193.361 63.5128C193.277 63.4887 193.197 63.4522 193.124 63.4044C193.063 63.3623 193.014 63.3065 192.98 63.2417C192.94 63.1659 192.909 63.0859 192.887 63.0032L188.555 50.3387C188.481 50.1346 188.428 49.924 188.395 49.7098C188.38 49.6476 188.382 49.5824 188.401 49.5212C188.421 49.4601 188.457 49.4053 188.505 49.3628C188.647 49.2682 188.814 49.2172 188.985 49.2164C189.206 49.2164 189.537 49.2164 189.929 49.2164C190.321 49.2164 190.541 49.2164 190.74 49.2164C190.892 49.2249 191.042 49.2522 191.187 49.2978C191.279 49.3234 191.357 49.3813 191.408 49.4604C191.452 49.5501 191.491 49.6424 191.524 49.7369L195.066 60.7587L198.537 49.7911C198.563 49.6855 198.601 49.5835 198.653 49.4875C198.706 49.4051 198.786 49.3422 198.879 49.3086C199.03 49.2532 199.188 49.222 199.348 49.2164C199.552 49.2164 199.828 49.2164 200.182 49.2164C200.449 49.213 200.716 49.2239 200.982 49.249C201.13 49.251 201.273 49.3093 201.379 49.4116C201.416 49.4627 201.442 49.5213 201.453 49.5832C201.465 49.6451 201.462 49.7087 201.445 49.7694C201.405 49.98 201.345 50.1868 201.269 50.3875L196.948 63.052Z" fill="#003596"/>
<path d="M206.405 63.1595C206.404 63.2331 206.377 63.3039 206.328 63.36C206.262 63.4261 206.181 63.4746 206.091 63.501C205.943 63.5445 205.792 63.5735 205.638 63.5877C205.4 63.6141 205.161 63.6268 204.921 63.6257C204.681 63.6265 204.442 63.6138 204.204 63.5877C204.05 63.5741 203.899 63.545 203.751 63.501C203.659 63.4755 203.575 63.4269 203.508 63.36C203.461 63.3034 203.436 63.2325 203.437 63.1595V49.6655C203.435 49.5923 203.461 49.5211 203.508 49.4649C203.575 49.3944 203.661 49.3453 203.757 49.3239C203.904 49.2783 204.056 49.2474 204.209 49.2318C204.684 49.1884 205.163 49.1884 205.638 49.2318C205.792 49.2474 205.943 49.2783 206.091 49.3239C206.183 49.3463 206.265 49.3955 206.328 49.4649C206.377 49.5205 206.405 49.5917 206.405 49.6655V63.1595Z" fill="#003596"/>
<path d="M218.307 62.4179C218.311 62.599 218.302 62.7802 218.279 62.96C218.269 63.0791 218.242 63.196 218.197 63.307C218.171 63.3851 218.12 63.4533 218.053 63.5022C218.001 63.5424 217.937 63.5635 217.871 63.5618H210.565C210.338 63.5693 210.116 63.494 209.942 63.3504C209.849 63.2583 209.779 63.1474 209.735 63.0257C209.691 62.9039 209.675 62.7742 209.688 62.6456V50.1763C209.676 50.0486 209.692 49.9198 209.736 49.7989C209.78 49.6781 209.85 49.5682 209.942 49.4769C210.115 49.3317 210.337 49.2545 210.565 49.26H217.827C217.891 49.26 217.953 49.281 218.004 49.3197C218.069 49.3671 218.117 49.4335 218.141 49.5094C218.18 49.6242 218.207 49.7422 218.224 49.8618C218.234 50.0424 218.234 50.2234 218.224 50.404C218.235 50.5845 218.235 50.7655 218.224 50.9461C218.208 51.0641 218.18 51.1803 218.141 51.2931C218.112 51.3681 218.065 51.4351 218.004 51.4883C217.953 51.5269 217.891 51.5479 217.827 51.5479H212.634V55.0393H217.049C217.116 55.0381 217.182 55.0591 217.237 55.0989C217.299 55.1488 217.347 55.2144 217.374 55.2887C217.42 55.3976 217.448 55.5128 217.457 55.6302C217.494 55.9799 217.494 56.3324 217.457 56.682C217.447 56.7976 217.419 56.9109 217.374 57.0181C217.347 57.091 217.299 57.1548 217.237 57.2025C217.181 57.2384 217.116 57.2572 217.049 57.2567H212.634V61.2902H217.871C217.937 61.2885 218.001 61.3096 218.053 61.3499C218.12 61.3987 218.171 61.4669 218.197 61.545C218.242 61.656 218.269 61.773 218.279 61.892C218.301 62.0664 218.311 62.2422 218.307 62.4179Z" fill="#003596"/>
<path d="M230.706 50.4577C230.719 50.6382 230.719 50.8194 230.706 50.9999C230.697 51.1242 230.669 51.2466 230.623 51.3631C230.596 51.4419 230.548 51.5127 230.486 51.5691C230.432 51.6105 230.366 51.6334 230.298 51.6342H226.656V63.1547C226.656 63.2278 226.631 63.2987 226.584 63.3553C226.516 63.4209 226.433 63.4693 226.341 63.4963C226.194 63.5403 226.042 63.5694 225.889 63.583C225.651 63.6091 225.411 63.6218 225.172 63.621C224.934 63.6218 224.696 63.6091 224.46 63.583C224.305 63.5693 224.151 63.5402 224.002 63.4963C223.912 63.4699 223.83 63.4214 223.765 63.3553C223.716 63.2992 223.689 63.2284 223.687 63.1547V51.6396H220.045C219.977 51.6416 219.91 51.6184 219.858 51.5745C219.795 51.5181 219.748 51.4474 219.72 51.3685C219.675 51.252 219.647 51.1296 219.637 51.0053C219.618 50.8252 219.609 50.6442 219.609 50.4631C219.61 50.2821 219.619 50.1012 219.637 49.921C219.647 49.795 219.675 49.6709 219.72 49.5523C219.746 49.4758 219.794 49.4081 219.858 49.3572C219.91 49.3133 219.977 49.2901 220.045 49.2921H230.298C230.366 49.2929 230.432 49.3158 230.486 49.3572C230.549 49.4081 230.597 49.4758 230.623 49.5523C230.668 49.6709 230.696 49.795 230.706 49.921C230.717 50.0997 230.717 50.279 230.706 50.4577Z" fill="#003596"/>
<path d="M244.535 62.5414C244.539 62.6959 244.508 62.8493 244.447 62.9914C244.392 63.1196 244.309 63.2343 244.204 63.3275C244.101 63.4168 243.978 63.4816 243.845 63.5173C243.709 63.5587 243.568 63.5788 243.426 63.5769H242.168C241.937 63.5826 241.707 63.5571 241.483 63.501C241.289 63.4473 241.11 63.3509 240.959 63.2191C240.775 63.0633 240.617 62.8804 240.49 62.677C240.305 62.3858 240.136 62.0854 239.983 61.777L236.368 55.0978C236.159 54.702 235.943 54.2683 235.723 53.8129C235.502 53.3575 235.314 52.9021 235.143 52.4684H235.116C235.149 53.0105 235.171 53.5527 235.187 54.0514C235.204 54.5502 235.187 55.1357 235.187 55.6779V63.1541C235.188 63.2253 235.167 63.2951 235.127 63.3547C235.069 63.4209 234.995 63.4713 234.911 63.501C234.78 63.5498 234.643 63.5808 234.503 63.5932C234.282 63.6194 234.059 63.6321 233.835 63.6311C233.618 63.632 233.4 63.6193 233.184 63.5932C233.046 63.5816 232.911 63.5506 232.782 63.501C232.7 63.4731 232.629 63.4222 232.577 63.3547C232.539 63.2946 232.52 63.2248 232.522 63.1541V50.3052C232.511 50.1607 232.534 50.0157 232.587 49.8807C232.641 49.7456 232.724 49.624 232.831 49.5245C233.041 49.3478 233.311 49.255 233.587 49.2643H235.209C235.451 49.2606 235.692 49.2861 235.927 49.3402C236.124 49.3821 236.312 49.4613 236.479 49.5733C236.648 49.7017 236.793 49.8576 236.909 50.0342C237.067 50.2639 237.207 50.505 237.328 50.7552L240.159 55.9815L240.645 56.914C240.81 57.2176 240.965 57.5266 241.114 57.8302C241.263 58.1338 241.412 58.4374 241.55 58.7302L241.969 59.6138C241.947 59.1006 241.93 58.5585 241.919 57.9874C241.919 57.4453 241.919 56.9031 241.919 56.361V49.698C241.919 49.6259 241.942 49.5554 241.986 49.4974C242.047 49.429 242.125 49.3767 242.212 49.3456C242.345 49.2954 242.484 49.2626 242.626 49.248C242.797 49.248 243.018 49.248 243.288 49.248C243.558 49.248 243.757 49.248 243.928 49.248C244.067 49.2604 244.202 49.2933 244.331 49.3456C244.409 49.3769 244.476 49.4296 244.524 49.4974C244.562 49.5575 244.581 49.6273 244.579 49.698L244.535 62.5414Z" fill="#003596"/>
<path d="M259.738 62.4767C259.811 62.6814 259.866 62.8917 259.903 63.1056C259.92 63.166 259.921 63.2297 259.906 63.2905C259.89 63.3513 259.859 63.4071 259.815 63.4525C259.689 63.5448 259.536 63.5943 259.379 63.5935C259.17 63.5935 258.877 63.626 258.513 63.626C258.149 63.626 257.834 63.626 257.619 63.626C257.453 63.6219 257.289 63.6 257.128 63.561C257.038 63.5417 256.956 63.4941 256.896 63.4254C256.846 63.354 256.806 63.2754 256.78 63.1923L255.804 60.3189H250.341L249.419 63.1164C249.394 63.2083 249.355 63.296 249.303 63.3766C249.243 63.4533 249.16 63.51 249.066 63.5393C248.917 63.5899 248.76 63.6173 248.602 63.6206C248.404 63.6206 248.144 63.6206 247.824 63.6206C247.554 63.6227 247.283 63.61 247.013 63.5827C246.864 63.5793 246.721 63.5235 246.61 63.4254C246.57 63.3759 246.542 63.3177 246.529 63.2555C246.515 63.1934 246.517 63.129 246.533 63.0676C246.569 62.8571 246.625 62.6502 246.699 62.4496L251.212 49.7742C251.247 49.6657 251.3 49.5632 251.367 49.4706C251.444 49.3856 251.543 49.3236 251.654 49.2917C251.834 49.2457 252.019 49.2202 252.206 49.2158C252.438 49.2158 252.758 49.2158 253.127 49.2158C253.497 49.2158 253.922 49.2158 254.187 49.2158C254.393 49.2206 254.598 49.2461 254.799 49.2917C254.92 49.3208 255.03 49.3851 255.114 49.476C255.186 49.5766 255.24 49.6884 255.274 49.8068L259.738 62.4767ZM253.061 51.997L251.003 58.069H255.13L253.061 51.997Z" fill="#003596"/>
<path d="M278.835 63.1592C278.837 63.2307 278.816 63.3009 278.775 63.3597C278.715 63.4278 278.636 63.4769 278.548 63.5007C278.409 63.545 278.264 63.5741 278.118 63.5874C277.665 63.638 277.208 63.638 276.755 63.5874C276.611 63.5736 276.468 63.5446 276.33 63.5007C276.243 63.474 276.165 63.4254 276.104 63.3597C276.061 63.3014 276.038 63.2312 276.038 63.1592V51.5301L271.822 63.1483C271.796 63.2387 271.746 63.3209 271.678 63.3869C271.597 63.4527 271.503 63.5024 271.403 63.5332C271.257 63.5751 271.107 63.5988 270.956 63.6037C270.779 63.6037 270.558 63.6037 270.304 63.6037C270.087 63.6056 269.869 63.5947 269.653 63.5712C269.503 63.5622 269.354 63.533 269.212 63.4844C269.111 63.4526 269.018 63.403 268.936 63.3381C268.868 63.2837 268.82 63.2096 268.798 63.1266L264.731 51.5085V63.1375C264.73 63.2086 264.709 63.2781 264.67 63.3381C264.608 63.4049 264.528 63.4537 264.439 63.479C264.297 63.5216 264.151 63.5506 264.003 63.5658C263.554 63.6164 263.1 63.6164 262.651 63.5658C262.503 63.5518 262.357 63.5227 262.215 63.479C262.129 63.454 262.052 63.405 261.994 63.3381C261.953 63.2792 261.931 63.209 261.933 63.1375V50.4242C261.922 50.2678 261.944 50.1109 261.996 49.9628C262.048 49.8147 262.13 49.6784 262.237 49.5622C262.344 49.462 262.471 49.3839 262.609 49.3327C262.747 49.2815 262.895 49.2581 263.043 49.264H264.979C265.278 49.2586 265.576 49.2877 265.868 49.3507C266.098 49.3991 266.316 49.4931 266.508 49.6272C266.691 49.7631 266.843 49.9348 266.955 50.1314C267.091 50.3785 267.196 50.6406 267.269 50.9121L270.415 59.4238H270.464L273.72 50.9338C273.803 50.6631 273.91 50.4 274.04 50.1477C274.14 49.9432 274.279 49.7592 274.448 49.6055C274.606 49.4681 274.795 49.3712 275 49.3236C275.238 49.2611 275.483 49.2319 275.729 49.2369H277.715C277.893 49.2326 278.071 49.2601 278.239 49.3182C278.376 49.3613 278.5 49.4378 278.598 49.5405C278.695 49.6472 278.769 49.7728 278.813 49.9091C278.865 50.0667 278.889 50.2316 278.885 50.3971L278.835 63.1592Z" fill="#003596"/>
</g>
<defs>
<clipPath id="clip0_16840_758">
<rect width="293" height="95" fill="white"/>
</clipPath>
</defs>
</svg>
