<svg width="96" height="96" viewBox="0 0 96 96" fill="none" xmlns="http://www.w3.org/2000/svg">
<path d="M47.7041 0.5C53.9032 0.497916 60.0418 1.71267 65.7695 4.07422C71.4973 6.43581 76.7022 9.89805 81.0859 14.2637C85.4697 18.6294 88.9477 23.8128 91.3193 29.5176C93.691 35.2224 94.9103 41.3372 94.9082 47.5117L94.9004 48.3828C94.7331 57.377 91.9772 66.1414 86.9521 73.6309C81.7651 81.3619 74.3927 87.3874 65.7676 90.9453C57.1424 94.5033 47.6514 95.4339 38.4951 93.6201C29.3389 91.8063 20.9278 87.3294 14.3262 80.7549C7.72446 74.1803 3.22875 65.8033 1.40723 56.6836C-0.41431 47.5638 0.52073 38.111 4.09375 29.5205C7.66671 20.9301 13.717 13.5883 21.4795 8.42285C29.2421 3.2574 38.3685 0.5 47.7041 0.5Z" fill="#3F52A4" stroke="white"/>
<path d="M47.7045 0.204665C53.9424 0.202597 60.1195 1.42403 65.8831 3.80041C71.6468 6.17684 76.884 9.66108 81.2954 14.0543C85.7068 18.4475 89.2062 23.6635 91.5928 29.4044C93.9793 35.1451 95.2062 41.298 95.2041 47.5114C95.2041 56.8687 92.4183 66.0159 87.1986 73.7957C81.9789 81.5755 74.5598 87.6383 65.8807 91.2185C57.2016 94.7987 47.6515 95.736 38.438 93.9109C29.2246 92.0857 20.7608 87.5805 14.1176 80.9646C7.47437 74.3488 2.94998 65.9188 1.11693 56.7414C-0.716053 47.564 0.224638 38.0514 3.82015 29.4068C7.41573 20.762 13.5048 13.3738 21.3161 8.17594C29.1272 2.97823 38.3101 0.204777 47.7038 0.204665H47.7045ZM46.854 1.8039C38.0706 1.96588 29.5115 4.63472 22.1977 9.50151C14.6483 14.5251 8.76455 21.665 5.29033 30.0178C1.81611 38.3708 0.907011 47.5624 2.67807 56.4296C4.44917 65.2969 8.82097 73.4429 15.241 79.8366C21.6611 86.2302 29.8416 90.5848 38.7474 92.349C47.6534 94.1132 56.8846 93.2073 65.2735 89.7468C73.6625 86.2863 80.8321 80.4265 85.8762 72.9086C90.9202 65.3908 93.6119 56.5524 93.6119 47.5114C93.6139 41.5079 92.4287 35.5626 90.1226 30.0155C87.8166 24.4684 84.4351 19.428 80.172 15.1824C75.9088 10.9368 70.8468 7.56908 65.2759 5.27214C59.705 2.97528 53.7341 1.79406 47.7045 1.79612L46.854 1.8039Z" fill="white"/>
<path d="M16.2338 13.0346L32.0971 45.7576L39.5217 32.4685L54.3763 32.341L61.929 45.7576L78.1713 12.5509C78.1713 12.5509 86.7115 18.5682 90.5065 29.226L70.3624 70.2041H56.0149L47.2025 51.1476L38.7691 70.2041H23.6584L4.7793 29.21C7.36868 23.0516 11.278 17.5311 16.2338 13.0346Z" fill="#FCFDFD"/>
<mask id="mask0_16840_857" style="mask-type:luminance" maskUnits="userSpaceOnUse" x="5" y="13" width="86" height="58">
<path d="M16.571 13.9632L32.263 46.3328L39.6075 33.1873L54.3016 33.0611L61.7727 46.3328L77.8396 13.4847C77.8396 13.4847 86.2875 19.437 90.0416 29.9797L70.115 70.5153H55.9225L47.2053 51.6646L38.863 70.5153H23.9154L5.24023 29.964C7.83372 23.8898 11.6963 18.4352 16.571 13.9632Z" fill="white"/>
</mask>
<g mask="url(#mask0_16840_857)">
<path d="M95.523 13.5899H-7.58398V14.2103H95.523V13.5899Z" fill="#3F52A4"/>
<path d="M95.523 16.566H-7.58398V17.1865H95.523V16.566Z" fill="#3F52A4"/>
<path d="M95.523 22.8917H-7.58398V23.5121H95.523V22.8917Z" fill="#3F52A4"/>
<path d="M95.523 19.7946H-7.58398V20.4151H95.523V19.7946Z" fill="#3F52A4"/>
<path d="M95.523 25.8678H-7.58398V26.4883H95.523V25.8678Z" fill="#3F52A4"/>
<path d="M95.523 28.844H-7.58398V29.4644H95.523V28.844Z" fill="#3F52A4"/>
<path d="M95.523 35.2958H-7.58398V35.9162H95.523V35.2958Z" fill="#3F52A4"/>
<path d="M95.523 32.1934H-7.58398V32.8139H95.523V32.1934Z" fill="#3F52A4"/>
<path d="M95.523 38.64H-7.58398V39.2605H95.523V38.64Z" fill="#3F52A4"/>
<path d="M95.523 41.6162H-7.58398V42.2367H95.523V41.6162Z" fill="#3F52A4"/>
<path d="M95.523 48.068H-7.58398V48.6885H95.523V48.068Z" fill="#3F52A4"/>
<path d="M95.523 44.9656H-7.58398V45.5861H95.523V44.9656Z" fill="#3F52A4"/>
<path d="M95.523 51.0441H-7.58398V51.6646H95.523V51.0441Z" fill="#3F52A4"/>
<path d="M95.523 54.0203H-7.58398V54.6408H95.523V54.0203Z" fill="#3F52A4"/>
<path d="M95.523 60.4669H-7.58398V61.0874H95.523V60.4669Z" fill="#3F52A4"/>
<path d="M95.523 57.3698H-7.58398V57.9903H95.523V57.3698Z" fill="#3F52A4"/>
<path d="M95.523 63.5692H-7.58398V64.1897H95.523V63.5692Z" fill="#3F52A4"/>
<path d="M95.523 66.5454H-7.58398V67.1658H95.523V66.5454Z" fill="#3F52A4"/>
<path d="M95.523 69.8948H-7.58398V70.5153H95.523V69.8948Z" fill="#3F52A4"/>
</g>
</svg>
