<svg width="19" height="19" viewBox="0 0 19 19" fill="none" xmlns="http://www.w3.org/2000/svg">
<path d="M8.9955 11.7227C9.79215 11.1935 10.3973 10.4219 10.7213 9.52207C11.0453 8.62225 11.0711 7.64201 10.7947 6.72643C10.5183 5.81085 9.95451 5.00857 9.18672 4.43833C8.41893 3.86809 7.48795 3.56018 6.53157 3.56018C5.57518 3.56018 4.6442 3.86809 3.87641 4.43833C3.10862 5.00857 2.54482 5.81085 2.26844 6.72643C1.99206 7.64201 2.01779 8.62225 2.34183 9.52207C2.66586 10.4219 3.27098 11.1935 4.06763 11.7227C2.70958 12.2236 1.53584 13.1255 0.701993 14.3087C0.63939 14.3976 0.602413 14.502 0.595096 14.6105C0.587778 14.719 0.610402 14.8275 0.660497 14.924C0.710593 15.0205 0.786237 15.1014 0.879176 15.1579C0.972115 15.2144 1.07878 15.2443 1.18753 15.2443L11.8754 15.2439C11.9841 15.2439 12.0908 15.214 12.1837 15.1575C12.2766 15.101 12.3523 15.0201 12.4024 14.9236C12.4524 14.827 12.4751 14.7186 12.4677 14.6101C12.4604 14.5016 12.4234 14.3972 12.3608 14.3083C11.527 13.1253 10.3534 12.2236 8.9955 11.7227Z" fill="#3D54A0"/>
<path d="M18.4106 14.3083C17.5768 13.1253 16.4031 12.2236 15.0453 11.7227C15.9281 11.135 16.5722 10.2515 16.8617 9.23119C17.1512 8.21088 17.067 7.12076 16.6244 6.15699C16.1817 5.19322 15.4096 4.41907 14.447 3.97386C13.4844 3.52866 12.3945 3.44162 11.3734 3.72841C11.2807 3.75448 11.1958 3.8027 11.1259 3.86892C11.056 3.93514 11.0032 4.01737 10.9721 4.10852C10.9411 4.19967 10.9327 4.297 10.9476 4.39212C10.9626 4.48725 11.0004 4.57731 11.0579 4.65455C11.7291 5.55616 12.115 6.63809 12.1658 7.76095C12.2166 8.88381 11.93 9.99616 11.343 10.9547C11.2655 11.0811 11.238 11.232 11.2661 11.3776C11.2942 11.5232 11.3758 11.653 11.4948 11.7415C11.7199 11.909 11.9365 12.0877 12.1437 12.277C12.1544 12.2886 12.1652 12.3002 12.177 12.3111C12.9695 13.0437 13.6118 13.9237 14.068 14.9017C14.1158 15.0041 14.1918 15.0907 14.2871 15.1514C14.3824 15.2121 14.4931 15.2443 14.6061 15.2443L17.9252 15.2439C18.0339 15.2439 18.1406 15.214 18.2335 15.1575C18.3264 15.101 18.4021 15.0201 18.4521 14.9236C18.5022 14.827 18.5248 14.7186 18.5175 14.6101C18.5102 14.5016 18.4732 14.3972 18.4106 14.3083L18.4106 14.3083Z" fill="#3D54A0"/>
</svg>
