<svg width="944" height="1563" viewBox="0 0 944 1563" fill="none" xmlns="http://www.w3.org/2000/svg">
<g filter="url(#filter0_f_16840_648)">
<path d="M633.239 961.626C592.032 1039.21 461.889 1009.22 362.809 1069.3C263.729 1129.37 228.515 1259.9 137.839 1261.99C47.1631 1264.09 5.49241 1154.99 -90.5712 1079.77C-186.635 1004.55 -303.621 988.776 -342.479 885.909C-381.337 783.042 -344.905 665.371 -284.86 565.435C-224.815 465.498 -144.488 436.36 -42.2546 386.227C59.9785 336.094 106.865 322.77 226.305 314.771C345.746 306.773 486.439 272.909 554.947 346.235C623.454 419.561 553.185 558.323 568.843 681.401C584.501 804.479 674.446 884.047 633.239 961.626Z" fill="url(#paint0_radial_16840_648)"/>
</g>
<defs>
<filter id="filter0_f_16840_648" x="-658.553" y="0" width="1602.5" height="1562.02" filterUnits="userSpaceOnUse" color-interpolation-filters="sRGB">
<feFlood flood-opacity="0" result="BackgroundImageFix"/>
<feBlend mode="normal" in="SourceGraphic" in2="BackgroundImageFix" result="shape"/>
<feGaussianBlur stdDeviation="150" result="effect1_foregroundBlur_16840_648"/>
</filter>
<radialGradient id="paint0_radial_16840_648" cx="0" cy="0" r="1" gradientTransform="matrix(1003.07 -133.77 163.356 1409.53 -321.66 756.514)" gradientUnits="userSpaceOnUse">
<stop stop-color="#0051E6"/>
<stop offset="1" stop-color="#9EF0FF"/>
</radialGradient>
</defs>
</svg>
